<svg width="228" height="31" viewBox="0 0 228 31" fill="none" xmlns="http://www.w3.org/2000/svg">
<rect width="228" height="31" rx="15.5" fill="#1F2430"/>
<path d="M96.0879 15.5635C94.9622 15.2399 94.1419 14.8434 93.627 14.374C93.1165 13.9001 92.8613 13.3167 92.8613 12.624C92.8613 11.8402 93.1735 11.193 93.7979 10.6826C94.4268 10.1676 95.2425 9.91016 96.2451 9.91016C96.9287 9.91016 97.5371 10.0423 98.0703 10.3066C98.6081 10.571 99.0228 10.9355 99.3145 11.4004C99.6107 11.8652 99.7588 12.3734 99.7588 12.9248H98.4395C98.4395 12.3232 98.248 11.8516 97.8652 11.5098C97.4824 11.1634 96.9424 10.9902 96.2451 10.9902C95.598 10.9902 95.0921 11.1338 94.7275 11.4209C94.3675 11.7035 94.1875 12.0977 94.1875 12.6035C94.1875 13.0091 94.3584 13.3532 94.7002 13.6357C95.0465 13.9137 95.6322 14.1689 96.457 14.4014C97.2865 14.6338 97.9336 14.8913 98.3984 15.1738C98.8678 15.4518 99.2142 15.7777 99.4375 16.1514C99.6654 16.5251 99.7793 16.9648 99.7793 17.4707C99.7793 18.2773 99.4648 18.9245 98.8359 19.4121C98.207 19.8952 97.3662 20.1367 96.3135 20.1367C95.6299 20.1367 94.9919 20.0068 94.3994 19.7471C93.807 19.4827 93.349 19.1227 93.0254 18.667C92.7064 18.2113 92.5469 17.694 92.5469 17.1152H93.8662C93.8662 17.7168 94.0872 18.193 94.5293 18.5439C94.9759 18.8903 95.5706 19.0635 96.3135 19.0635C97.0062 19.0635 97.5371 18.9222 97.9062 18.6396C98.2754 18.3571 98.46 17.972 98.46 17.4844C98.46 16.9967 98.2891 16.6208 97.9473 16.3564C97.6055 16.0876 96.9857 15.8232 96.0879 15.5635ZM104.339 20.1367C103.336 20.1367 102.521 19.8086 101.892 19.1523C101.263 18.4915 100.948 17.6097 100.948 16.5068V16.2744C100.948 15.5407 101.087 14.8867 101.365 14.3125C101.648 13.7337 102.04 13.2826 102.541 12.959C103.047 12.6309 103.594 12.4668 104.182 12.4668C105.143 12.4668 105.891 12.7835 106.424 13.417C106.957 14.0505 107.224 14.9574 107.224 16.1377V16.6641H102.213C102.231 17.3932 102.443 17.9834 102.849 18.4346C103.259 18.8812 103.778 19.1045 104.407 19.1045C104.854 19.1045 105.232 19.0133 105.542 18.8311C105.852 18.6488 106.123 18.4072 106.355 18.1064L107.128 18.708C106.508 19.6605 105.578 20.1367 104.339 20.1367ZM104.182 13.5059C103.671 13.5059 103.243 13.6927 102.896 14.0664C102.55 14.4355 102.336 14.9551 102.254 15.625H105.959V15.5293C105.923 14.8867 105.749 14.39 105.439 14.0391C105.13 13.6836 104.71 13.5059 104.182 13.5059ZM113.26 20C113.187 19.8542 113.128 19.5944 113.082 19.2207C112.494 19.8314 111.792 20.1367 110.977 20.1367C110.247 20.1367 109.648 19.9316 109.179 19.5215C108.714 19.1068 108.481 18.5827 108.481 17.9492C108.481 17.179 108.773 16.582 109.356 16.1582C109.944 15.7298 110.769 15.5156 111.831 15.5156H113.062V14.9346C113.062 14.4925 112.929 14.1416 112.665 13.8818C112.401 13.6175 112.011 13.4854 111.496 13.4854C111.045 13.4854 110.667 13.5993 110.361 13.8271C110.056 14.055 109.903 14.3307 109.903 14.6543H108.632C108.632 14.2852 108.762 13.9297 109.021 13.5879C109.286 13.2415 109.641 12.9681 110.088 12.7676C110.539 12.5671 111.034 12.4668 111.571 12.4668C112.424 12.4668 113.091 12.681 113.574 13.1094C114.057 13.5332 114.308 14.1188 114.326 14.8662V18.2705C114.326 18.9495 114.413 19.4896 114.586 19.8906V20H113.26ZM111.161 19.0361C111.558 19.0361 111.934 18.9336 112.289 18.7285C112.645 18.5234 112.902 18.2568 113.062 17.9287V16.4111H112.07C110.521 16.4111 109.746 16.8646 109.746 17.7715C109.746 18.168 109.878 18.4779 110.143 18.7012C110.407 18.9245 110.746 19.0361 111.161 19.0361ZM119.884 13.7383C119.692 13.7064 119.485 13.6904 119.262 13.6904C118.432 13.6904 117.869 14.0436 117.573 14.75V20H116.309V12.6035H117.539L117.56 13.458C117.974 12.7972 118.562 12.4668 119.323 12.4668C119.569 12.4668 119.756 12.4987 119.884 12.5625V13.7383ZM123.883 19.1045C124.334 19.1045 124.728 18.9678 125.065 18.6943C125.403 18.4209 125.59 18.0791 125.626 17.6689H126.822C126.799 18.0928 126.654 18.4961 126.385 18.8789C126.116 19.2617 125.756 19.5671 125.305 19.7949C124.858 20.0228 124.384 20.1367 123.883 20.1367C122.876 20.1367 122.074 19.8018 121.477 19.1318C120.884 18.4574 120.588 17.5368 120.588 16.3701V16.1582C120.588 15.4382 120.72 14.7979 120.984 14.2373C121.249 13.6768 121.627 13.2415 122.119 12.9316C122.616 12.6217 123.201 12.4668 123.876 12.4668C124.705 12.4668 125.394 12.7152 125.94 13.2119C126.492 13.7087 126.786 14.3535 126.822 15.1465H125.626C125.59 14.668 125.407 14.276 125.079 13.9707C124.756 13.6608 124.354 13.5059 123.876 13.5059C123.233 13.5059 122.734 13.7383 122.379 14.2031C122.028 14.6634 121.853 15.3311 121.853 16.2061V16.4453C121.853 17.2975 122.028 17.9538 122.379 18.4141C122.73 18.8743 123.231 19.1045 123.883 19.1045ZM129.509 13.499C130.069 12.8109 130.799 12.4668 131.696 12.4668C133.259 12.4668 134.048 13.3486 134.062 15.1123V20H132.797V15.1055C132.792 14.5723 132.669 14.1781 132.428 13.9229C132.191 13.6676 131.819 13.54 131.313 13.54C130.903 13.54 130.543 13.6494 130.233 13.8682C129.924 14.0869 129.682 14.374 129.509 14.7295V20H128.244V9.5H129.509V13.499Z" fill="#E5E5E5"/>
</svg>
